# xmcd
#
# Track frame offsets:
#	150
#	92304
#	125400
#	161915
#
# Disc length: 2528 seconds
#
# Revision: 1
# Processed by: cddbd v1.5.2PL0 Copyright (c) Steve Scherf et al.
# Submitted via: audiograbber 1.83.01
#
DISCID=2809de04
DTITLE=Grateful Dead - 73-02-19 International Amphitheatre, Chicago IL
DYEAR=1900
DGENRE=
TTITLE0=Eyes Of The World
TTITLE1=China Doll
TTITLE2=Sugar Magnolia
TTITLE3=Casey Jones
EXTD=
EXTT0=
EXTT1=
EXTT2=
EXTT3=
PLAYORDER=
